<svg xmlns="http://www.w3.org/2000/svg" width="1200" height="630" viewBox="0 0 1200 630" role="img">
<title>Bhutan Echoes — Travel Bhutan with a licensed local guide</title>
<rect width="1200" height="630" fill="#0B3D2E"/>
<polygon points="0,630 200,630 0,350" fill="#092e22"/>
<polygon points="1200,630 1000,630 1200,380" fill="#092e22"/>
<polygon points="180,500 360,180 540,500" fill="#0d4a37"/>
<polygon points="360,180 400,280 360,260 320,280" fill="#e8e0d0"/>
<line x1="180" y1="500" x2="540" y2="500" stroke="#C8860A" stroke-width="3" stroke-linecap="round"/>
<polygon points="500,500 730,120 960,500" fill="#0f5240"/>
<polygon points="730,120 790,300 730,270 670,300" fill="#f0ebe0"/>
<line x1="500" y1="500" x2="960" y2="500" stroke="#C8860A" stroke-width="3" stroke-linecap="round"/>
<polygon points="800,500 960,230 1120,500" fill="#0d4a37"/>
<polygon points="960,230 995,320 960,305 925,320" fill="#e8e0d0"/>
<line x1="800" y1="500" x2="1120" y2="500" stroke="#C8860A" stroke-width="3" stroke-linecap="round"/>
<line x1="0" y1="500" x2="1200" y2="500" stroke="#C8860A" stroke-width="2" opacity="0.4"/>
<circle cx="200" cy="100" r="3" fill="#C8860A" opacity="0.6"/>
<circle cx="250" cy="80" r="2" fill="#C8860A" opacity="0.4"/>
<circle cx="170" cy="130" r="2" fill="#C8860A" opacity="0.5"/>
<circle cx="980" cy="90" r="3" fill="#C8860A" opacity="0.6"/>
<circle cx="1030" cy="110" r="2" fill="#C8860A" opacity="0.4"/>
<circle cx="950" cy="70" r="2" fill="#C8860A" opacity="0.5"/>
<line x1="190" y1="80" x2="190" y2="130" stroke="#e8d5b0" stroke-width="1" opacity="0.3"/>
<line x1="170" y1="80" x2="210" y2="80" stroke="#e8d5b0" stroke-width="1" opacity="0.3"/>
<line x1="970" y1="70" x2="970" y2="120" stroke="#e8d5b0" stroke-width="1" opacity="0.3"/>
<line x1="950" y1="70" x2="990" y2="70" stroke="#e8d5b0" stroke-width="1" opacity="0.3"/>
<line x1="1010" y1="85" x2="1010" y2="125" stroke="#e8d5b0" stroke-width="1" opacity="0.3"/>
<line x1="990" y1="85" x2="1030" y2="85" stroke="#e8d5b0" stroke-width="1" opacity="0.3"/>
<text x="600" y="310" font-family="Georgia, serif" font-size="88" font-weight="700" fill="#FAF7F0" text-anchor="middle" letter-spacing="2">Bhutan</text>
<text x="600" y="400" font-family="Georgia, serif" font-size="88" font-weight="300" fill="#FAF7F0" text-anchor="middle" letter-spacing="6">Echoes</text>
<line x1="320" y1="430" x2="880" y2="430" stroke="#C8860A" stroke-width="1.5" opacity="0.6"/>
<text x="600" y="465" font-family="Georgia, serif" font-size="26" font-weight="400" fill="#C8860A" text-anchor="middle" letter-spacing="3">THE LAST HIMALAYAN KINGDOM</text>
<text x="600" y="570" font-family="Georgia, serif" font-size="20" font-weight="400" fill="#FAF7F0" text-anchor="middle" opacity="0.7">Travel with a licensed local guide · bhutanechoes.com</text>
</svg>
